<svg id="Layer_1" data-name="Layer 1" xmlns="http://www.w3.org/2000/svg" viewBox="0 0 239.38 86.61"><defs><style>.cls-1{stroke:#000;stroke-miterlimit:10;}</style></defs><title>CPlogoBlack</title><path class="cls-1" d="M132,148.19a13.54,13.54,0,0,1-.67,2.3,32.67,32.67,0,0,0-3.48,13.61c0,1,.32,2.56.89,2.76a3.5,3.5,0,0,0,3-.74c2.86-2.85,5.52-5.91,8.24-8.9a11.89,11.89,0,0,1,.89-1.19c.22-.19.66-.12,1-.16,0,.33.19.76.05,1-3.09,4.73-6.43,9.26-11.52,12-2.74,1.49-4.46.49-4.69-2.67a56.13,56.13,0,0,0-.42-6.2l-2,2.21a63.8,63.8,0,0,1-4.9,5.35,4,4,0,0,1-3.32.92c-.71-.25-.94-1.92-1.35-3a9.84,9.84,0,0,1-.3-1.47c-.81.64-1.43,1.06-2,1.57-1.92,1.77-3.69,3.73-5.76,5.3-1,.77-2.8,1.44-3.82,1.05-.84-.31-1.49-2.25-1.47-3.47a50.74,50.74,0,0,1,.89-7.42c.25-1.59.78-3.15,1-4.75a4.55,4.55,0,0,0-.42-2.66c-1.33-2.34-2.68-2.26-3.9.12-2.89,5.63-5.78,11.32-11.29,14.9a37.24,37.24,0,0,1-7.54,3.51,3.82,3.82,0,0,1-4.44-1.12c-.8-.94-1.49-.36-2.17.34-2.79,2.87-5.42,5.92-8.46,8.49-5,4.24-10.78,6.9-17.58,6.88-6.46,0-11-4-13-9.72-2.39-6.66-2.1-13.5-.8-20.34a70.66,70.66,0,0,1,11.66-27.93c4.25-6,9.14-11.42,16.56-13.74,4.19-1.32,8.35-.58,10.39,2.38a10.33,10.33,0,0,1,1.34,8.64c-1.21,4.62-2.61,9.19-4.16,13.7a7.57,7.57,0,0,1-2.55,2.82,1.8,1.8,0,0,1-1.65-.24c-.28-.21-.32-1.06-.14-1.5.84-2.08,2-4.06,2.65-6.19A44.44,44.44,0,0,0,69.11,125c.38-5-3.14-7.17-7.76-5.3-3.33,1.35-5.52,4-7.66,6.72-5.61,7-9,15.19-11.63,23.71a53.16,53.16,0,0,0-2.58,21c.43,4.24,1.74,8.31,6.13,10.24,3.44,1.52,7,1,10.45-.17A30.49,30.49,0,0,0,73.12,166.5c1-1.85,1.08-4.2,1.71-6.28a32.08,32.08,0,0,1,7.85-13.44,9,9,0,0,1,3.66-2.07A2,2,0,0,1,89.1,147a12.08,12.08,0,0,1-1.25,4.23,30.12,30.12,0,0,1-8.78,10.07c-1.72,1.32-2.66,5-1.71,6.87a2.74,2.74,0,0,0,3.42,1.63,23,23,0,0,0,6-2.89c5-3.81,7.87-9.27,10.32-14.92a4.44,4.44,0,0,0,0-2.55c-1-4.25.49-7.85,2.86-11.21.28-.39,1.14-.83,1.35-.69a2,2,0,0,1,.82,1.48,18.82,18.82,0,0,1-.52,4.62,3.43,3.43,0,0,0,1.24,4c.19.16.4.3.59.46,3.55,2.86,3.93,4.66,2.46,9-1.12,3.3-2,6.69-2.79,10.07a6.23,6.23,0,0,0,.45,2.43c.86-.21,1.93-.16,2.57-.66,4-3.15,7.48-6.78,9.59-11.54A35.82,35.82,0,0,1,124,145.21a18.81,18.81,0,0,1,4.71-3c.65-.31,1.66.15,2.5.26-.39.76-.6,1.77-1.22,2.22-3.63,2.64-6.94,5.61-9.15,9.52a65,65,0,0,0-3.87,8.84c-.24.65.3,1.59.48,2.39.77-.31,1.82-.4,2.25-1,2.16-2.88,4.23-5.86,6.21-8.87,1.27-1.93,2.28-4,3.53-6a12,12,0,0,1,1.92-1.91ZM78.94,158.71l.39.44a5.65,5.65,0,0,0,1.31-.77,32.79,32.79,0,0,0,3.65-4A30.75,30.75,0,0,0,87,149.13c.2-.46-.2-1.66-.52-1.74a2.26,2.26,0,0,0-2,.49A32.68,32.68,0,0,0,78.94,158.71Z" transform="translate(-31.17 -100.69)"/><path class="cls-1" d="M253,142.28a13.76,13.76,0,0,0,1.15-.86l13.43-12.79c.23-.22.43-.54.69-.62a10,10,0,0,1,1.65-.19c-.11.54,0,1.28-.34,1.59-2.3,2.2-4.7,4.3-7,6.48-2.95,2.77-5.86,5.61-8.81,8.4-.91.87-.72,1.33.33,2,3.34,1.95,6.6,4,9.89,6a5.27,5.27,0,0,1,.57.49c.86.76,1.45,1.64.72,2.77s-1.83.51-2.64.09c-2.66-1.39-5.26-2.87-7.87-4.36-3.39-1.92-3.75-2.55-4.93,1.93-.9,3.43-1.66,6.9-2.51,10.34a13.42,13.42,0,0,1-.89,2.84c-.25.51-.92.82-1.41,1.21-.25-.51-.76-1-.72-1.52.35-3.66.8-7.31,1.23-11,.08-.71.23-1.42.34-2.13l-.49-.33c-.62.6-1.23,1.21-1.86,1.79-3,2.73-5.87,5.59-9,8.1a4.89,4.89,0,0,1-4.08.82c-.88-.37-1.59-2.39-1.5-3.62.22-3.27.91-6.52,1.42-9.78.21-1.29.53-2.57.65-3.87.17-1.85-1-2.92-2.54-3.51-.41-.16-1.52.49-1.75,1-3.12,7.06-8,12.76-13.56,18a15.14,15.14,0,0,1-3.4,2.29c-2.76,1.41-4.73.27-4.89-2.81-.08-1.62,0-3.24,0-4.86,0-.52-.07-1-.1-1.55l-.48-.19c-.41.47-.81,1-1.24,1.42-2.18,2.31-4.28,4.71-6.61,6.86a3.39,3.39,0,0,1-3,.73c-.75-.33-1.3-1.74-1.41-2.73-.42-3.89,1.11-7.35,2.84-10.71a34.37,34.37,0,0,1,9.44-11.73,15.83,15.83,0,0,1,4.29-2.2c.53-.19,1.36.42,2.05.66a5.24,5.24,0,0,1-.81,1.64c-2.31,2.09-4.79,4-7,6.15a23.55,23.55,0,0,0-7.36,13.37,7.77,7.77,0,0,0,.35,2.34c.76-.31,1.81-.39,2.23-.95,3.06-4.09,6-8.26,9-12.43.79-1.12,1.37-2.4,2.2-3.48A5.67,5.67,0,0,1,211,142.3a6.72,6.72,0,0,1-.06,2.2c-.85,2.4-2.09,4.69-2.71,7.14a39.3,39.3,0,0,0-1.07,8c-.1,2.25,1.7,3.24,3.31,1.71a127.87,127.87,0,0,0,10.37-11,34.78,34.78,0,0,0,4.22-7.46,4.86,4.86,0,0,0,.06-3.2c-.91-3.11.93-9.69,3.47-11.75,1-.83,2-.57,2.16.73a7.79,7.79,0,0,1-.22,3.5c-1.07,3-.28,5.12,2.45,6.79a8.07,8.07,0,0,1,2.4,2.74c1.3,2.15.1,4.23-.47,6.28-.93,3.29-2,6.55-3,9.83a4.34,4.34,0,0,0-.12,1.86c.2,1.16.85,1.86,2.11,1.23a8.27,8.27,0,0,0,2.36-1.48c3.48-3.74,6.9-7.54,10.31-11.34a3,3,0,0,0,.53-1.18c2.52-8.88,4.84-17.83,7.62-26.62a126.74,126.74,0,0,1,6.17-15.21c.72-1.53,2.52-2.6,3.94-3.73a1.87,1.87,0,0,1,1.69.21c.24.17.18,1.06,0,1.51-1.24,3.06-2.65,6-3.82,9.13-2.59,6.81-5.1,13.64-7.6,20.48-.83,2.28-1.54,4.61-2.23,6.93a17.21,17.21,0,0,0-.39,2.49Z" transform="translate(-31.17 -100.69)"/><path class="cls-1" d="M176.3,106.87c9.08.38,16.08,4,20.65,11.63a15.7,15.7,0,0,1,1.82,11.32c-1.49,8.1-6.28,13.93-12.22,19.12a59.94,59.94,0,0,1-21.94,12.14c-2.28.7-2.61,2.62-3,4.34-1.06,4.28-1.92,8.62-2.74,13a6,6,0,0,1-4.62,4.84c-1.36.26-2.09-.51-1.87-2.21.3-2.29.67-4.58,1.12-6.84,2.64-13.3,5.63-26.51,10.51-39.2,1.92-5,3.92-10,6.05-14.9a12.29,12.29,0,0,1,2.66-3.54,3,3,0,0,1,4.24-.34c.67.64.73,2.49.35,3.53-1.84,5-4,9.8-5.88,14.75-1.71,4.53-3.23,9.14-4.74,13.75-.87,2.65-1.6,5.35-2.32,8.05a2.54,2.54,0,0,0,.11,1.73c.13.24,1.05.23,1.52.06,8.11-3,15.7-6.89,21.55-13.43,4.13-4.62,6.73-10,5.89-16.39-1-7.75-7.34-13.67-15.84-15-1.47-.23-3-.2-4.47-.32s-3.12.31-3.52-1.63c-.29-1.39,1.79-3.89,3.28-4.13C174.08,107,175.34,106.94,176.3,106.87Z" transform="translate(-31.17 -100.69)"/></svg>